<svg xmlns="http://www.w3.org/2000/svg" xmlns:xlink="http://www.w3.org/1999/xlink" xmlns:lucid="lucid" width="1142" height="1102"><g transform="translate(-519 -1179)" lucid:page-tab-id="0_0"><path d="M500 1000h1500v1500H500z" fill="#fff"/><path d="M520 1766a6 6 0 0 1 6-6h1128a6 6 0 0 1 6 6v508a6 6 0 0 1-6 6H526a6 6 0 0 1-6-6zM520 1186a6 6 0 0 1 6-6h1128a6 6 0 0 1 6 6v508a6 6 0 0 1-6 6H526a6 6 0 0 1-6-6z" stroke="#000" stroke-width="2" fill="#f2f3f5"/><path d="M900 1326a6 6 0 0 1 6-6h68a6 6 0 0 1 6 6v68a6 6 0 0 1-6 6h-68a6 6 0 0 1-6-6z" stroke="#000" stroke-width="2" fill="#fff3d9"/><use xlink:href="#a" transform="matrix(1,0,0,1,912,1332) translate(4.209852430555557 35.52777777777778)"/><path d="M980 1326a6 6 0 0 1 6-6h68a6 6 0 0 1 6 6v68a6 6 0 0 1-6 6h-68a6 6 0 0 1-6-6z" stroke="#000" stroke-width="2" fill="#fff3d9"/><use xlink:href="#a" transform="matrix(1,0,0,1,992,1332) translate(4.209852430555557 35.52777777777778)"/><path d="M1060 1326a6 6 0 0 1 6-6h68a6 6 0 0 1 6 6v68a6 6 0 0 1-6 6h-68a6 6 0 0 1-6-6z" stroke="#000" stroke-width="2" fill="#fff3d9"/><use xlink:href="#a" transform="matrix(1,0,0,1,1072,1332) translate(4.209852430555557 35.52777777777778)"/><path d="M1140 1326a6 6 0 0 1 6-6h68a6 6 0 0 1 6 6v68a6 6 0 0 1-6 6h-68a6 6 0 0 1-6-6z" stroke="#000" stroke-width="2" fill="#fff3d9"/><use xlink:href="#a" transform="matrix(1,0,0,1,1152,1332) translate(4.209852430555557 35.52777777777778)"/><path d="M1220 1326a6 6 0 0 1 6-6h68a6 6 0 0 1 6 6v68a6 6 0 0 1-6 6h-68a6 6 0 0 1-6-6z" stroke="#000" stroke-width="2" fill="#fff3d9"/><use xlink:href="#b" transform="matrix(1,0,0,1,1232,1332) translate(4.209852430555557 35.52777777777778)"/><path d="M1300 1326a6 6 0 0 1 6-6h68a6 6 0 0 1 6 6v68a6 6 0 0 1-6 6h-68a6 6 0 0 1-6-6z" stroke="#000" stroke-width="2" fill="#fff3d9"/><use xlink:href="#a" transform="matrix(1,0,0,1,1312,1332) translate(4.209852430555557 35.52777777777778)"/><path d="M1380 1326a6 6 0 0 1 6-6h68a6 6 0 0 1 6 6v68a6 6 0 0 1-6 6h-68a6 6 0 0 1-6-6z" stroke="#000" stroke-width="2" fill="#fff3d9"/><use xlink:href="#a" transform="matrix(1,0,0,1,1392,1332) translate(4.209852430555557 35.52777777777778)"/><path d="M1460 1326a6 6 0 0 1 6-6h68a6 6 0 0 1 6 6v68a6 6 0 0 1-6 6h-68a6 6 0 0 1-6-6z" stroke="#000" stroke-width="2" fill="#fff3d9"/><use xlink:href="#a" transform="matrix(1,0,0,1,1472,1332) translate(4.209852430555557 35.52777777777778)"/><path d="M900 1426a6 6 0 0 1 6-6h68a6 6 0 0 1 6 6v68a6 6 0 0 1-6 6h-68a6 6 0 0 1-6-6z" stroke="#000" stroke-width="2" fill="#fff3d9"/><use xlink:href="#a" transform="matrix(1,0,0,1,912,1432) translate(4.209852430555557 35.52777777777778)"/><path d="M980 1426a6 6 0 0 1 6-6h68a6 6 0 0 1 6 6v68a6 6 0 0 1-6 6h-68a6 6 0 0 1-6-6z" stroke="#000" stroke-width="2" fill="#fff3d9"/><use xlink:href="#a" transform="matrix(1,0,0,1,992,1432) translate(4.209852430555557 35.52777777777778)"/><path d="M1060 1426a6 6 0 0 1 6-6h68a6 6 0 0 1 6 6v68a6 6 0 0 1-6 6h-68a6 6 0 0 1-6-6z" stroke="#000" stroke-width="2" fill="#fff3d9"/><use xlink:href="#a" transform="matrix(1,0,0,1,1072,1432) translate(4.209852430555557 35.52777777777778)"/><path d="M1140 1426a6 6 0 0 1 6-6h68a6 6 0 0 1 6 6v68a6 6 0 0 1-6 6h-68a6 6 0 0 1-6-6z" stroke="#000" stroke-width="2" fill="#fff3d9"/><use xlink:href="#a" transform="matrix(1,0,0,1,1152,1432) translate(4.209852430555557 35.52777777777778)"/><path d="M1220 1426a6 6 0 0 1 6-6h68a6 6 0 0 1 6 6v68a6 6 0 0 1-6 6h-68a6 6 0 0 1-6-6z" stroke="#000" stroke-width="2" fill="#fff3d9"/><use xlink:href="#a" transform="matrix(1,0,0,1,1232,1432) translate(4.209852430555557 35.52777777777778)"/><path d="M1300 1426a6 6 0 0 1 6-6h68a6 6 0 0 1 6 6v68a6 6 0 0 1-6 6h-68a6 6 0 0 1-6-6z" stroke="#000" stroke-width="2" fill="#fff3d9"/><use xlink:href="#a" transform="matrix(1,0,0,1,1312,1432) translate(4.209852430555557 35.52777777777778)"/><path d="M1380 1426a6 6 0 0 1 6-6h68a6 6 0 0 1 6 6v68a6 6 0 0 1-6 6h-68a6 6 0 0 1-6-6z" stroke="#000" stroke-width="2" fill="#fff3d9"/><use xlink:href="#a" transform="matrix(1,0,0,1,1392,1432) translate(4.209852430555557 35.52777777777778)"/><path d="M1460 1426a6 6 0 0 1 6-6h68a6 6 0 0 1 6 6v68a6 6 0 0 1-6 6h-68a6 6 0 0 1-6-6z" stroke="#000" stroke-width="2" fill="#fff3d9"/><use xlink:href="#a" transform="matrix(1,0,0,1,1472,1432) translate(4.209852430555557 35.52777777777778)"/><path d="M900 1526a6 6 0 0 1 6-6h68a6 6 0 0 1 6 6v68a6 6 0 0 1-6 6h-68a6 6 0 0 1-6-6z" stroke="#000" stroke-width="2" fill="#fff3d9"/><use xlink:href="#a" transform="matrix(1,0,0,1,912,1532) translate(4.209852430555557 35.52777777777778)"/><path d="M980 1526a6 6 0 0 1 6-6h68a6 6 0 0 1 6 6v68a6 6 0 0 1-6 6h-68a6 6 0 0 1-6-6z" stroke="#000" stroke-width="2" fill="#fff3d9"/><use xlink:href="#a" transform="matrix(1,0,0,1,992,1532) translate(4.209852430555557 35.52777777777778)"/><path d="M1060 1526a6 6 0 0 1 6-6h68a6 6 0 0 1 6 6v68a6 6 0 0 1-6 6h-68a6 6 0 0 1-6-6z" stroke="#000" stroke-width="2" fill="#fff3d9"/><use xlink:href="#a" transform="matrix(1,0,0,1,1072,1532) translate(4.209852430555557 35.52777777777778)"/><path d="M1140 1526a6 6 0 0 1 6-6h68a6 6 0 0 1 6 6v68a6 6 0 0 1-6 6h-68a6 6 0 0 1-6-6z" stroke="#000" stroke-width="2" fill="#fff3d9"/><use xlink:href="#a" transform="matrix(1,0,0,1,1152,1532) translate(4.209852430555557 35.52777777777778)"/><path d="M1220 1526a6 6 0 0 1 6-6h68a6 6 0 0 1 6 6v68a6 6 0 0 1-6 6h-68a6 6 0 0 1-6-6z" stroke="#000" stroke-width="2" fill="#fff3d9"/><use xlink:href="#a" transform="matrix(1,0,0,1,1232,1532) translate(4.209852430555557 35.52777777777778)"/><path d="M1300 1526a6 6 0 0 1 6-6h68a6 6 0 0 1 6 6v68a6 6 0 0 1-6 6h-68a6 6 0 0 1-6-6z" stroke="#000" stroke-width="2" fill="#fff3d9"/><use xlink:href="#a" transform="matrix(1,0,0,1,1312,1532) translate(4.209852430555557 35.52777777777778)"/><path d="M660 1326a6 6 0 0 1 6-6h228a6 6 0 0 1 6 6v68a6 6 0 0 1-6 6H666a6 6 0 0 1-6-6z" fill="none"/><use xlink:href="#c" transform="matrix(1,0,0,1,660,1320) translate(50.55555555555556 48.083767361111114)"/><use xlink:href="#d" transform="matrix(1,0,0,1,660,1320) translate(134.53993055555554 48.083767361111114)"/><use xlink:href="#e" transform="matrix(1,0,0,1,660,1320) translate(180.40581597222223 48.083767361111114)"/><path d="M660 1426a6 6 0 0 1 6-6h228a6 6 0 0 1 6 6v68a6 6 0 0 1-6 6H666a6 6 0 0 1-6-6z" fill="none"/><use xlink:href="#f" transform="matrix(1,0,0,1,660,1420) translate(48.298611111111114 48.083767361111114)"/><use xlink:href="#g" transform="matrix(1,0,0,1,660,1420) translate(132.28298611111111 48.083767361111114)"/><use xlink:href="#h" transform="matrix(1,0,0,1,660,1420) translate(178.14887152777777 48.083767361111114)"/><path d="M660 1526a6 6 0 0 1 6-6h228a6 6 0 0 1 6 6v68a6 6 0 0 1-6 6H666a6 6 0 0 1-6-6z" fill="none"/><use xlink:href="#f" transform="matrix(1,0,0,1,660,1520) translate(48.21180555555556 48.083767361111114)"/><use xlink:href="#g" transform="matrix(1,0,0,1,660,1520) translate(132.19618055555554 48.083767361111114)"/><use xlink:href="#i" transform="matrix(1,0,0,1,660,1520) translate(178.06206597222223 48.083767361111114)"/><path d="M660 1303v275.22M660 1303.08V1300" stroke="#3a414a" stroke-width="6" fill="none"/><path d="M660 1595.48l-4.63-14.26h9.26z" stroke="#3a414a" stroke-width="6" fill="#3a414a"/><path d="M566 1620a6 6 0 0 1-6-6v-308a6 6 0 0 1 6-6h68a6 6 0 0 1 6 6v308a6 6 0 0 1-6 6z" fill="none"/><use xlink:href="#f" transform="matrix(6.123233995736766e-17,-1,1,6.123233995736766e-17,560,1620) translate(7.694227430555543 30.764409722222222)"/><use xlink:href="#j" transform="matrix(6.123233995736766e-17,-1,1,6.123233995736766e-17,560,1620) translate(91.67860243055554 30.764409722222222)"/><use xlink:href="#g" transform="matrix(6.123233995736766e-17,-1,1,6.123233995736766e-17,560,1620) translate(154.98155381944443 30.764409722222222)"/><use xlink:href="#k" transform="matrix(6.123233995736766e-17,-1,1,6.123233995736766e-17,560,1620) translate(200.8474392361111 30.764409722222222)"/><use xlink:href="#l" transform="matrix(6.123233995736766e-17,-1,1,6.123233995736766e-17,560,1620) translate(228.78797743055554 30.764409722222222)"/><use xlink:href="#m" transform="matrix(6.123233995736766e-17,-1,1,6.123233995736766e-17,560,1620) translate(42.43619791666667 63.03003472222222)"/><use xlink:href="#n" transform="matrix(6.123233995736766e-17,-1,1,6.123233995736766e-17,560,1620) translate(144.68619791666669 63.03003472222222)"/><path d="M900 1786a6 6 0 0 1 6-6h68a6 6 0 0 1 6 6v68a6 6 0 0 1-6 6h-68a6 6 0 0 1-6-6z" stroke="#000" stroke-width="2" fill="#fff3d9"/><use xlink:href="#a" transform="matrix(1,0,0,1,912,1792) translate(4.209852430555557 35.52777777777778)"/><path d="M900 1886a6 6 0 0 1 6-6h68a6 6 0 0 1 6 6v68a6 6 0 0 1-6 6h-68a6 6 0 0 1-6-6z" stroke="#000" stroke-width="2" fill="#fff3d9"/><use xlink:href="#b" transform="matrix(1,0,0,1,912,1892) translate(4.209852430555557 35.52777777777778)"/><path d="M900 1986a6 6 0 0 1 6-6h68a6 6 0 0 1 6 6v68a6 6 0 0 1-6 6h-68a6 6 0 0 1-6-6z" stroke="#000" stroke-width="2" fill="#fff3d9"/><use xlink:href="#a" transform="matrix(1,0,0,1,912,1992) translate(4.209852430555557 35.52777777777778)"/><path d="M660 1786a6 6 0 0 1 6-6h228a6 6 0 0 1 6 6v68a6 6 0 0 1-6 6H666a6 6 0 0 1-6-6z" fill="none"/><use xlink:href="#o" transform="matrix(1,0,0,1,660,1780) translate(60.896267361111114 48.083767361111114)"/><use xlink:href="#g" transform="matrix(1,0,0,1,660,1780) translate(124.19921875 48.083767361111114)"/><use xlink:href="#p" transform="matrix(1,0,0,1,660,1780) translate(170.06510416666666 48.083767361111114)"/><path d="M660 1886a6 6 0 0 1 6-6h228a6 6 0 0 1 6 6v68a6 6 0 0 1-6 6H666a6 6 0 0 1-6-6z" fill="none"/><use xlink:href="#o" transform="matrix(1,0,0,1,660,1880) translate(58.63932291666667 48.083767361111114)"/><use xlink:href="#g" transform="matrix(1,0,0,1,660,1880) translate(121.94227430555556 48.083767361111114)"/><use xlink:href="#q" transform="matrix(1,0,0,1,660,1880) translate(167.80815972222223 48.083767361111114)"/><path d="M660 1986a6 6 0 0 1 6-6h228a6 6 0 0 1 6 6v68a6 6 0 0 1-6 6H666a6 6 0 0 1-6-6z" fill="none"/><g><use xlink:href="#r" transform="matrix(1,0,0,1,660,1980) translate(58.552517361111114 48.083767361111114)"/><use xlink:href="#d" transform="matrix(1,0,0,1,660,1980) translate(121.85546875 48.083767361111114)"/><use xlink:href="#s" transform="matrix(1,0,0,1,660,1980) translate(167.72135416666666 48.083767361111114)"/></g><path d="M660 1809.3v423.73" stroke="#3a414a" stroke-width="6" fill="none"/><path stroke="#3a414a" stroke-width=".05" fill="#3a414a"/><path d="M660 2250.3l-4.63-14.28h9.26z" stroke="#3a414a" stroke-width="6" fill="#3a414a"/><g><path d="M586 2120a6 6 0 0 1-6-6v-228a6 6 0 0 1 6-6h68a6 6 0 0 1 6 6v228a6 6 0 0 1-6 6z" fill="none"/></g><g><use xlink:href="#f" transform="matrix(6.123233995736766e-17,-1,1,6.123233995736766e-17,580,2120) translate(1.4344618055555571 30.861631944444444)"/><use xlink:href="#j" transform="matrix(6.123233995736766e-17,-1,1,6.123233995736766e-17,580,2120) translate(85.41883680555556 30.861631944444444)"/><use xlink:href="#g" transform="matrix(6.123233995736766e-17,-1,1,6.123233995736766e-17,580,2120) translate(148.72178819444446 30.861631944444444)"/><use xlink:href="#t" transform="matrix(6.123233995736766e-17,-1,1,6.123233995736766e-17,580,2120) translate(194.5876736111111 30.861631944444444)"/><use xlink:href="#u" transform="matrix(6.123233995736766e-17,-1,1,6.123233995736766e-17,580,2120) translate(48 62.932812500000004)"/><use xlink:href="#v" transform="matrix(6.123233995736766e-17,-1,1,6.123233995736766e-17,580,2120) translate(176 62.932812500000004)"/></g><path d="M900 2146a6 6 0 0 1 6-6h68a6 6 0 0 1 6 6v68a6 6 0 0 1-6 6h-68a6 6 0 0 1-6-6z" stroke="#000" stroke-width="2" fill="#fff3d9"/><g><use xlink:href="#a" transform="matrix(1,0,0,1,912,2152) translate(4.209852430555557 35.52777777777778)"/></g><path d="M660 2146a6 6 0 0 1 6-6h228a6 6 0 0 1 6 6v68a6 6 0 0 1-6 6H666a6 6 0 0 1-6-6z" fill="none"/><g><use xlink:href="#r" transform="matrix(1,0,0,1,660,2140) translate(57.04427083333334 48.083767361111114)"/><use xlink:href="#d" transform="matrix(1,0,0,1,660,2140) translate(120.34722222222223 48.083767361111114)"/><use xlink:href="#w" transform="matrix(1,0,0,1,660,2140) translate(166.21310763888889 48.083767361111114)"/></g><path d="M940 2074.65v6.34m0 12.66v12.68m0 12.67v6.35M940 2074.7v-1.55M940 2125.3v1.55" stroke="#3a414a" stroke-width="3" fill="none"/><defs><path d="M180 0v-1490h510c348 0 508 194 508 460 0 198-88 351-276 417L1256 0h-220L726-579c-117 2-238 0-356 1V0H180zm190-747h312c235 0 327-108 327-283 0-177-92-293-329-293H370v576" id="x"/><path d="M763 24c-353 0-583-224-583-531v-983h190v968c0 214 149 370 393 370 243 0 391-156 391-370v-968h190v983c0 307-230 531-581 531" id="y"/><path d="M180 0v-1490h224l606 953c40 63 108 177 176 312-27-437-7-821-13-1265h190V0h-226C860-448 622-778 356-1262c27 476 11 792 15 1262H180" id="z"/><g id="a"><use transform="matrix(0.010850694444444444,0,0,0.010850694444444444,0,0)" xlink:href="#x"/><use transform="matrix(0.010850694444444444,0,0,0.010850694444444444,14.301215277777777,0)" xlink:href="#y"/><use transform="matrix(0.010850694444444444,0,0,0.010850694444444444,30.837673611111104,0)" xlink:href="#z"/></g><g id="b"><use transform="matrix(0.010850694444444444,0,0,0.010850694444444444,0,0)" xlink:href="#x"/><use transform="matrix(0.010850694444444444,0,0,0.010850694444444444,14.301215277777777,0)" xlink:href="#y"/><use transform="matrix(0.010850694444444444,0,0,0.010850694444444444,30.837673611111104,0)" xlink:href="#z"/></g><path d="M657 26c-323 0-524-166-541-416h195c15 169 171 246 346 246 202 0 356-106 356-265 5-203-294-238-475-293-239-73-380-191-380-389 0-252 224-419 512-419 294 0 499 171 508 396H992c-17-145-151-228-328-228-193 0-321 102-321 242 0 156 175 211 284 241l149 41c160 44 422 134 422 412 0 244-197 432-541 432" id="A"/><path d="M180 0v-1490h190v1322h690V0H180" id="B"/><path d="M180 0v-1490h270l367 940c28 72 75 218 110 339 35-117 81-264 110-339l362-940h271V0h-187c2-448-5-837 7-1287-157 497-311 829-483 1287H842C666-458 514-784 354-1284c12 438 5 843 7 1284H180" id="C"/><g id="c"><use transform="matrix(0.010850694444444444,0,0,0.010850694444444444,0,0)" xlink:href="#A"/><use transform="matrix(0.010850694444444444,0,0,0.010850694444444444,14.2578125,0)" xlink:href="#B"/><use transform="matrix(0.010850694444444444,0,0,0.010850694444444444,26.822916666666664,0)" xlink:href="#y"/><use transform="matrix(0.010850694444444444,0,0,0.010850694444444444,43.359375,0)" xlink:href="#x"/><use transform="matrix(0.010850694444444444,0,0,0.010850694444444444,57.66059027777778,0)" xlink:href="#C"/></g><path d="M545 20c-263 0-445-160-445-446v-80h190v80c0 182 102 279 255 279 152 0 254-97 254-279v-1064h190v1064c0 286-181 446-444 446" id="D"/><path d="M613 24c-304 0-509-231-509-576 0-350 205-580 509-580 305 0 511 230 511 580 0 345-206 576-511 576zm0-161c226 0 329-195 329-415 0-222-103-419-329-419-223 0-326 196-326 419 0 220 103 415 326 415" id="E"/><path d="M677 24c-213 0-288-135-325-197h-20V0H158v-1490h180v551h14c37-59 106-193 324-193 279 0 474 222 474 576 0 356-194 580-473 580zm-27-161c209 0 317-186 317-421 0-232-105-413-317-413-206 0-314 166-314 413 0 249 111 421 314 421" id="F"/><g id="d"><use transform="matrix(0.010850694444444444,0,0,0.010850694444444444,0,0)" xlink:href="#D"/><use transform="matrix(0.010850694444444444,0,0,0.010850694444444444,12.684461805555555,0)" xlink:href="#E"/><use transform="matrix(0.010850694444444444,0,0,0.010850694444444444,26.009114583333332,0)" xlink:href="#F"/></g><path d="M653-1490V0H466v-1314h-10L96-1047v-204l324-239h233" id="G"/><use transform="matrix(0.010850694444444444,0,0,0.010850694444444444,0,0)" xlink:href="#G" id="e"/><g id="f"><use transform="matrix(0.010850694444444444,0,0,0.010850694444444444,0,0)" xlink:href="#A"/><use transform="matrix(0.010850694444444444,0,0,0.010850694444444444,14.2578125,0)" xlink:href="#B"/><use transform="matrix(0.010850694444444444,0,0,0.010850694444444444,26.822916666666664,0)" xlink:href="#y"/><use transform="matrix(0.010850694444444444,0,0,0.010850694444444444,43.359375,0)" xlink:href="#x"/><use transform="matrix(0.010850694444444444,0,0,0.010850694444444444,57.66059027777778,0)" xlink:href="#C"/></g><g id="g"><use transform="matrix(0.010850694444444444,0,0,0.010850694444444444,0,0)" xlink:href="#D"/><use transform="matrix(0.010850694444444444,0,0,0.010850694444444444,12.684461805555555,0)" xlink:href="#E"/><use transform="matrix(0.010850694444444444,0,0,0.010850694444444444,26.009114583333332,0)" xlink:href="#F"/></g><path d="M154 0v-137l495-537c165-179 249-281 249-418 0-156-121-253-280-253-170 0-278 110-278 278H158c0-264 200-443 465-443 266 0 455 183 455 416 0 161-73 288-336 568L416-179v12h687V0H154" id="H"/><use transform="matrix(0.010850694444444444,0,0,0.010850694444444444,0,0)" xlink:href="#H" id="h"/><path d="M635 20c-292 0-500-160-510-396h192c11 142 145 229 315 229 187 0 323-105 323-260 0-161-125-274-346-274H488v-165h121c174 0 294-100 294-254 0-148-104-245-266-245-152 0-291 85-297 230H157c8-234 222-395 484-395 278 0 448 188 448 400 0 168-95 291-247 336v12c190 31 301 169 301 357 0 244-216 425-508 425" id="I"/><use transform="matrix(0.010850694444444444,0,0,0.010850694444444444,0,0)" xlink:href="#I" id="i"/><path d="M52 0l541-1490h220L1361 0h-200l-149-416H398L254 0H52zm404-582h497c-103-290-145-390-251-756-108 377-145 460-246 756" id="J"/><path d="M158 0v-1118h174v172h12c41-113 157-188 290-188 26 0 70 2 91 3v181c-11-2-60-10-108-10-161 0-279 109-279 260V0H158" id="K"/><path d="M471 26C259 26 90-98 90-318c0-256 228-303 435-329 202-27 287-16 287-108 0-139-79-219-234-219-161 0-248 86-283 164l-173-57c86-203 278-265 451-265 150 0 419 46 419 395V0H815v-152h-12C765-73 660 26 471 26zm31-159c199 0 310-134 310-271v-155c-30 35-226 55-295 64-131 17-246 59-246 186 0 116 97 176 231 176" id="L"/><path d="M140 405l46-156c120 36 205 19 263-150l32-93L54-1118h197c107 313 237 620 324 950 87-331 219-637 326-950h196L606 167c-68 178-176 259-334 259-64 0-113-12-132-21" id="M"/><g id="j"><use transform="matrix(0.010850694444444444,0,0,0.010850694444444444,0,0)" xlink:href="#J"/><use transform="matrix(0.010850694444444444,0,0,0.010850694444444444,15.33203125,0)" xlink:href="#K"/><use transform="matrix(0.010850694444444444,0,0,0.010850694444444444,24.04513888888889,0)" xlink:href="#K"/><use transform="matrix(0.010850694444444444,0,0,0.010850694444444444,32.41102430555555,0)" xlink:href="#L"/><use transform="matrix(0.010850694444444444,0,0,0.010850694444444444,44.56380208333333,0)" xlink:href="#M"/></g><g id="k"><use transform="matrix(0.010850694444444444,0,0,0.010850694444444444,0,0)" xlink:href="#E"/><use transform="matrix(0.010850694444444444,0,0,0.010850694444444444,13.324652777777777,0)" xlink:href="#K"/></g><path d="M537 14c-226 0-379-139-379-422v-710h180v695c0 172 97 275 253 275 160 0 281-109 281-300v-670h181V0H879v-209C806-46 684 14 537 14" id="N"/><path d="M338-1490V0H158v-1490h180" id="O"/><path d="M598-1118v154H368v674c0 100 37 144 132 144 23 0 62-6 92-12L629-6c-37 13-88 20-134 20-193 0-307-107-307-290v-688H20v-154h168v-266h180v266h230" id="P"/><path d="M158 0v-1118h180V0H158zm91-1301c-68 0-125-53-125-119s57-119 125-119c69 0 126 53 126 119s-57 119-126 119" id="Q"/><path d="M158 418v-1536h174v179h20c37-59 106-193 324-193 279 0 474 222 474 576 0 356-194 580-473 580-213 0-288-135-325-197h-14v591H158zm492-555c209 0 317-186 317-421 0-232-105-413-317-413-206 0-314 166-314 413 0 249 111 421 314 421" id="R"/><path d="M628 24c-324 0-524-230-524-574 0-343 198-582 503-582 237 0 487 146 487 559v75H286c9 234 145 362 343 362 132 0 231-58 273-172l174 48C1024-91 857 24 628 24zM287-650h624c-17-190-120-322-304-322-192 0-309 151-320 322" id="S"/><g id="l"><use transform="matrix(0.010850694444444444,0,0,0.010850694444444444,0,0)" xlink:href="#C"/><use transform="matrix(0.010850694444444444,0,0,0.010850694444444444,20.07378472222222,0)" xlink:href="#N"/><use transform="matrix(0.010850694444444444,0,0,0.010850694444444444,33.21397569444444,0)" xlink:href="#O"/><use transform="matrix(0.010850694444444444,0,0,0.010850694444444444,38.92144097222222,0)" xlink:href="#P"/><use transform="matrix(0.010850694444444444,0,0,0.010850694444444444,46.19140625,0)" xlink:href="#Q"/><use transform="matrix(0.010850694444444444,0,0,0.010850694444444444,51.57335069444444,0)" xlink:href="#R"/><use transform="matrix(0.010850694444444444,0,0,0.010850694444444444,65.18012152777777,0)" xlink:href="#O"/><use transform="matrix(0.010850694444444444,0,0,0.010850694444444444,70.56206597222221,0)" xlink:href="#S"/></g><path d="M301 16c-106 0-198-49-198-128 0-15 7-25 21-25s20 12 20 29c0 46 69 83 154 83 126 0 206-89 110-155-40-27-213-28-238-59-103-76-18-192 125-192 92 0 178 48 178 114 0 14-7 23-20 24-12 0-19-7-21-23-5-45-57-74-133-74-100 0-175 68-98 120 22 14 28 16 116 25 100 10 180 41 180 129 0 76-83 132-196 132" id="T"/><path d="M144 0h-41v-604h41v276c50-71 106-103 180-103 122 0 217 97 217 221 0 125-97 226-217 226-73 0-133-34-180-104V0zm178-390c-99 0-178 81-178 182S223-25 322-25c97 0 178-82 178-180 0-104-78-185-178-185" id="U"/><path d="M296-390c-34 0-77 11-152 32-23-1-25-34-2-41 56-16 120-32 157-32 93 0 161 52 161 123V0h-41v-67c-61 57-121 83-191 83-93 0-156-52-156-128 0-87 86-146 211-146 46 0 77 5 136 21v-71c0-49-50-82-123-82zm123 278v-90c-36-9-84-15-128-15-106 0-178 43-178 106 0 52 45 86 114 86 71 0 125-24 192-87" id="V"/><path d="M186-417h220c18 0 27 7 27 20 0 14-9 21-27 21H186v267C185 8 396-17 464-65c17-12 35-3 35 14 0 29-114 67-199 67-94 0-155-48-155-123v-269c-34-5-102 14-102-21 0-34 69-15 102-20v-119c0-18 7-27 21-27s20 8 20 27v119" id="W"/><path d="M511-298c0 18-7 27-20 27s-19-7-21-24c-4-53-75-95-159-95-110 0-186 75-186 185 0 105 77 180 186 180 73 0 135-24 187-72 12-18 37-10 37 9 0 12-15 30-43 49-51 35-117 55-183 55C178 16 84-76 84-204c0-132 96-227 230-227 61 0 197 22 197 133" id="X"/><path d="M437-288c-2-59-52-102-123-102-58 0-99 33-149 94V0h-41v-604h41v257c51-61 93-84 154-84 93 0 159 59 159 140V0h-41v-288" id="Y"/><g id="m"><use transform="matrix(0.02666666666666667,0,0,0.02666666666666667,0,0)" xlink:href="#T"/><use transform="matrix(0.02666666666666667,0,0,0.02666666666666667,16,0)" xlink:href="#U"/><use transform="matrix(0.02666666666666667,0,0,0.02666666666666667,32,0)" xlink:href="#V"/><use transform="matrix(0.02666666666666667,0,0,0.02666666666666667,48,0)" xlink:href="#W"/><use transform="matrix(0.02666666666666667,0,0,0.02666666666666667,64,0)" xlink:href="#X"/><use transform="matrix(0.02666666666666667,0,0,0.02666666666666667,80,0)" xlink:href="#Y"/></g><path d="M158 0v-1118h175l1 205c55-151 181-225 313-225 147 0 245 90 285 228 53-141 190-228 352-228 194 0 352 125 352 384V0h-181v-749c0-161-105-225-225-225-151 0-243 103-243 244V0H807v-767c0-124-93-207-219-207-131 0-250 92-250 270V0H158" id="Z"/><path d="M538 24C308 24 148-78 108-271l171-41c32 123 123 178 257 178 156 0 256-77 256-169 0-77-54-128-164-154l-186-44c-203-48-300-148-300-305 0-192 176-326 414-326 230 0 351 112 402 269l-163 42c-31-80-94-158-238-158-133 0-233 69-233 162 0 83 57 129 188 160l169 40c203 48 298 149 298 302 0 196-179 339-441 339" id="aa"/><path d="M338-670V0H158v-1118h173l1 207c72-158 192-221 342-221 226 0 378 139 378 422V0H872v-695c0-172-96-275-252-275-161 0-282 109-282 300" id="ab"/><g id="n"><use transform="matrix(0.010850694444444444,0,0,0.010850694444444444,0,0)" xlink:href="#A"/><use transform="matrix(0.010850694444444444,0,0,0.010850694444444444,14.2578125,0)" xlink:href="#N"/><use transform="matrix(0.010850694444444444,0,0,0.010850694444444444,27.39800347222222,0)" xlink:href="#F"/><use transform="matrix(0.010850694444444444,0,0,0.010850694444444444,41.00477430555556,0)" xlink:href="#Z"/><use transform="matrix(0.010850694444444444,0,0,0.010850694444444444,60.470920138888886,0)" xlink:href="#Q"/><use transform="matrix(0.010850694444444444,0,0,0.010850694444444444,65.85286458333333,0)" xlink:href="#aa"/><use transform="matrix(0.010850694444444444,0,0,0.010850694444444444,77.58246527777777,0)" xlink:href="#aa"/><use transform="matrix(0.010850694444444444,0,0,0.010850694444444444,89.31206597222221,0)" xlink:href="#Q"/><use transform="matrix(0.010850694444444444,0,0,0.010850694444444444,94.69401041666666,0)" xlink:href="#E"/><use transform="matrix(0.010850694444444444,0,0,0.010850694444444444,108.01866319444441,0)" xlink:href="#ab"/><use transform="matrix(0.010850694444444444,0,0,0.010850694444444444,121.1480034722222,0)" xlink:href="#aa"/></g><g id="o"><use transform="matrix(0.010850694444444444,0,0,0.010850694444444444,0,0)" xlink:href="#J"/><use transform="matrix(0.010850694444444444,0,0,0.010850694444444444,15.33203125,0)" xlink:href="#K"/><use transform="matrix(0.010850694444444444,0,0,0.010850694444444444,24.04513888888889,0)" xlink:href="#K"/><use transform="matrix(0.010850694444444444,0,0,0.010850694444444444,32.41102430555555,0)" xlink:href="#L"/><use transform="matrix(0.010850694444444444,0,0,0.010850694444444444,44.56380208333333,0)" xlink:href="#M"/></g><use transform="matrix(0.010850694444444444,0,0,0.010850694444444444,0,0)" xlink:href="#G" id="p"/><use transform="matrix(0.010850694444444444,0,0,0.010850694444444444,0,0)" xlink:href="#H" id="q"/><g id="r"><use transform="matrix(0.010850694444444444,0,0,0.010850694444444444,0,0)" xlink:href="#J"/><use transform="matrix(0.010850694444444444,0,0,0.010850694444444444,15.33203125,0)" xlink:href="#K"/><use transform="matrix(0.010850694444444444,0,0,0.010850694444444444,24.04513888888889,0)" xlink:href="#K"/><use transform="matrix(0.010850694444444444,0,0,0.010850694444444444,32.41102430555555,0)" xlink:href="#L"/><use transform="matrix(0.010850694444444444,0,0,0.010850694444444444,44.56380208333333,0)" xlink:href="#M"/></g><use transform="matrix(0.010850694444444444,0,0,0.010850694444444444,0,0)" xlink:href="#I" id="s"/><path d="M409 0L70-1118h191c89 329 165 560 243 925 75-353 154-601 240-925h192c85 325 161 564 235 922 77-354 157-598 244-922h191L1267 0h-179c-86-307-176-590-250-913C763-588 675-308 588 0H409" id="ac"/><path d="M338-670V0H158v-1490h180v566c73-149 190-208 336-208 226 0 379 139 379 422V0H872v-695c0-172-96-275-252-275-161 0-282 109-282 300" id="ad"/><g id="t"><use transform="matrix(0.010850694444444444,0,0,0.010850694444444444,0,0)" xlink:href="#ac"/><use transform="matrix(0.010850694444444444,0,0,0.010850694444444444,18.18576388888889,0)" xlink:href="#Q"/><use transform="matrix(0.010850694444444444,0,0,0.010850694444444444,23.567708333333336,0)" xlink:href="#P"/><use transform="matrix(0.010850694444444444,0,0,0.010850694444444444,30.837673611111114,0)" xlink:href="#ad"/></g><path d="M501-258H99c-18 0-27-7-27-21 0-13 9-20 27-20h402c18 0 27 7 27 20 0 14-9 21-27 21" id="ae"/><path d="M300-431c128 0 228 99 228 226C528-83 426 16 300 16 173 16 72-83 72-208c0-123 101-223 228-223zm0 41c-104 0-187 81-187 182 0 102 83 183 187 183 103 0 187-81 187-180 0-105-82-185-187-185" id="af"/><path d="M480-417V0h-41v-66c-55 54-116 82-182 82-80 0-133-52-133-131v-302h41v302c0 50 40 90 91 90 67 0 128-30 183-90v-302h41" id="ag"/><path d="M319-390c-84 8-101 30-152 96V0h-41v-417h41v69c58-64 94-83 156-83 89 0 157 59 157 136V0h-41v-288c-1-57-52-108-120-102" id="ah"/><g id="u"><use transform="matrix(0.02666666666666667,0,0,0.02666666666666667,0,0)" xlink:href="#ae"/><use transform="matrix(0.02666666666666667,0,0,0.02666666666666667,16,0)" xlink:href="#ae"/><use transform="matrix(0.02666666666666667,0,0,0.02666666666666667,32,0)" xlink:href="#X"/><use transform="matrix(0.02666666666666667,0,0,0.02666666666666667,48,0)" xlink:href="#af"/><use transform="matrix(0.02666666666666667,0,0,0.02666666666666667,64,0)" xlink:href="#ag"/><use transform="matrix(0.02666666666666667,0,0,0.02666666666666667,80,0)" xlink:href="#ah"/><use transform="matrix(0.02666666666666667,0,0,0.02666666666666667,96,0)" xlink:href="#W"/></g><path d="M280 0v-557c-49 15-95 32-146 45-9 0-19-10-19-20 0-11 5-17 21-22l185-58V0h-41" id="ai"/><use transform="matrix(0.02666666666666667,0,0,0.02666666666666667,0,0)" xlink:href="#ai" id="v"/><use transform="matrix(0.010850694444444444,0,0,0.010850694444444444,0,0)" xlink:href="#z" id="w"/></defs></g></svg>